inDegrees=no
num_controls=7
num_derivatives=13
num_iterations=94
num_multipliers=7
num_parameters=0
num_slacks=7
num_states=26
objective=0.517392
objective_accelerations=0.039877
objective_balance=0.002184
objective_effort=0.043467
objective_height=0.420241
objective_ligament=0.011623
solver_duration=1262.165304
status=Solve_Succeeded
success=true
DataType=double
version=3
OpenSimVersion=4.5
endheader
time	/jointset/ground_pelvis/pelvis_tilt/value	/jointset/ground_pelvis/pelvis_tx/value	/jointset/ground_pelvis/pelvis_ty/value	/jointset/hip_l/hip_flexion_l/value	/jointset/hip_l/hip_adduction_l/value	/jointset/hip_l/hip_rotation_l/value	/jointset/back/lumbar_extension/value	/jointset/patellofemoral_l/patellar_flexion_l/value	/jointset/knee_l/knee_flexion_l/value	/jointset/knee_l/knee_adduction_l/value	/jointset/knee_l/knee_rotation_l/value	/jointset/ankle_l/ankle_angle_l/value	/jointset/subtalar_l/subtalar_angle_l/value	/jointset/ground_pelvis/pelvis_tilt/speed	/jointset/ground_pelvis/pelvis_tx/speed	/jointset/ground_pelvis/pelvis_ty/speed	/jointset/hip_l/hip_flexion_l/speed	/jointset/hip_l/hip_adduction_l/speed	/jointset/hip_l/hip_rotation_l/speed	/jointset/back/lumbar_extension/speed	/jointset/patellofemoral_l/patellar_flexion_l/speed	/jointset/knee_l/knee_flexion_l/speed	/jointset/knee_l/knee_adduction_l/speed	/jointset/knee_l/knee_rotation_l/speed	/jointset/ankle_l/ankle_angle_l/speed	/jointset/subtalar_l/subtalar_angle_l/speed	/forceset/tau_hip_flexion_l	/forceset/tau_hip_adduction_l	/forceset/tau_hip_rotation_l	/forceset/tau_knee_flexion_l	/forceset/tau_ankle_angle_l	/forceset/tau_subtalar_angle_l	/forceset/tau_lumbar_extension	lambda_cid13_p0	lambda_cid13_p1	lambda_cid13_p2	lambda_cid13_p3	lambda_cid13_p4	lambda_cid13_p5	lambda_cid14_p0	/jointset/ground_pelvis/pelvis_tilt/accel	/jointset/ground_pelvis/pelvis_tx/accel	/jointset/ground_pelvis/pelvis_ty/accel	/jointset/hip_l/hip_flexion_l/accel	/jointset/hip_l/hip_adduction_l/accel	/jointset/hip_l/hip_rotation_l/accel	/jointset/back/lumbar_extension/accel	/jointset/patellofemoral_l/patellar_flexion_l/accel	/jointset/knee_l/knee_flexion_l/accel	/jointset/knee_l/knee_adduction_l/accel	/jointset/knee_l/knee_rotation_l/accel	/jointset/ankle_l/ankle_angle_l/accel	/jointset/subtalar_l/subtalar_angle_l/accel	gamma_cid13_p0	gamma_cid13_p1	gamma_cid13_p2	gamma_cid13_p3	gamma_cid13_p4	gamma_cid13_p5	gamma_cid14_p0
1	-0.1494076137234163	-0.08735252098736114	0.7284209666104333	1.242924499292525	-0.3282786566829697	-0.001266877145629945	-0.9599233262271506	1.16718943310112	1.167189433101065	-0.08009108013410744	-0.1745312358327614	0.1529999118174517	0.01521603072592442	0.1059266880412807	0.02649462770265286	0.06782238686286188	-0.2955784388247415	-4.134198007590205e-05	-0.06454849974328587	-0.002712383090218853	-0.1687548507833377	-0.1687548507833405	-0.0004289545573216556	5.662369485209714e-05	0.01218989797841482	0.005437915449582789	-0.3935972162753661	0.03618394674350626	-0.005169368961087022	-0.2978757551713046	0.1035499377223193	0.02635685975695084	0.4337363350711812	-17.41448659744874	-7.710955434544114	-0.00932199862109597	5.845586075542691	-786.5628401081937	-54.91246315611677	-1.654832909460913	0.9893315278966024	0.1753777974150445	1.247095765795835	-4.591243867088203	-0.009069634214158632	-1.416186425710596	0.374383434918407	-4.160693086604281	-4.160693086604202	-0.1991190412048935	0.0008249036871220469	-0.8313493960809545	-0.2942487467163277	-1.011880838057181e-08	-9.443351821734389e-09	3.958557334470623e-08	5.373567115851694e-09	-2.248850470943453e-08	5.167670868037009e-08	-1.08265606944093e-08
1.01	-0.1482993574108115	-0.0870787442090193	0.7291612978356752	1.239740187501899	-0.3282789234152202	-0.001983342662337653	-0.9599308459364601	1.165294364730855	1.165294364730796	-0.08010413748580475	-0.174530012548748	0.1530804258173934	0.01525646404862806	0.1157206942558191	0.02826895441567974	0.08023006155704253	-0.3412583559195896	-5.450732351143349e-06	-0.07873679357251556	0.001244264050312031	-0.2102385752776832	-0.2102385752776849	-0.002180405501948664	0.0001856634586877656	0.003913575473351723	0.002656392261106963	-0.3928769884190134	0.03637735270835944	-0.005205756808023405	-0.2975205729429803	0.1034044657100776	0.02643644644811722	0.4334636732441554	-17.4264569912533	-7.753049511753214	0.008383573763009522	5.685419153103784	-786.1763578502711	-54.95783392442011	-1.693210842952685	0.9738516101363098	0.1796956154275053	1.235528603025551	-4.55253328424098	0.01089962922071668	-1.418992305676078	0.4116787851497478	-4.139172053058037	-4.139172053057907	-0.1628491966223301	0.01860048641694951	-0.8256737676069198	-0.2689609561166868	-1.418310767256772e-08	-1.746181381953051e-08	5.304778867656742e-08	7.675033896596208e-09	-2.608331708596888e-08	5.799866399517884e-08	-1.435894484493304e-08
1.02	-0.1470932777476857	-0.08678697706211105	0.7300252908642186	1.236099843009627	-0.3282786350100028	-0.002841459406155876	-0.9598977244885619	1.162985067131203	1.162985067131131	-0.08013464756203663	-0.1745275674723895	0.1530781965743068	0.015269310769206	0.1254913581465319	0.03009270141593776	0.09255474752313397	-0.3867849791567431	6.968551356578814e-05	-0.09287874516762937	0.005415848452028828	-0.2516006966603611	-0.2516006966603622	-0.003919499467808694	0.0003009821699231539	-0.004358750627228718	-7.940497551133104e-05	-0.3921567605625861	0.03657075867323101	-0.00524214465482325	-0.29716539071465	0.1032589936978283	0.0265160331393003	0.4331910114171938	-17.44920452336547	-7.79338198850991	0.02595157058757653	5.563497720449113	-785.9355202630652	-54.99593486363804	-1.740545757858188	0.9846630631314751	0.185261854861283	1.23049802017799	-4.560585095549293	-0.001220634575760422	-1.406917978887463	0.4173708871558247	-4.136372464270742	-4.136372464270757	-0.1966476454515082	-0.001919306833011644	-0.8305501151844105	-0.2851035563448572	-1.841298252891145e-08	-2.597245310390882e-08	6.518397043636565e-08	1.053462459166964e-08	-3.074510600707216e-08	6.278644925267712e-08	-1.758462646843083e-08
1.03	-0.1457898416938037	-0.08647656794592964	0.7310120771309195	1.232005163912943	-0.3282774011840717	-0.003840641584951898	-0.9598206057051046	1.160262892028621	1.160262892028598	-0.08018257473905575	-0.1745240319805287	0.1529934810770178	0.01525510619282291	0.1351688927387527	0.03201330532570634	0.1047849821905623	-0.4321097280644106	0.0001831213317451695	-0.1069421154004542	0.01016446778064738	-0.2928008105719448	-0.2928008105719415	-0.005669381600358966	0.000402039122404877	-0.01256169852052048	-0.002746270601964451	-0.3923158842134009	0.03692099234771647	-0.005288989305985502	-0.2963599628935213	0.1030359182121324	0.02668731121684166	0.4339845870817787	-17.50789736363813	-7.875146882907068	0.05915395571269993	5.15798998748909	-786.1318114689733	-55.03724098247138	-1.79714062934943	0.9552527518134524	0.1990898822475478	1.216650534171727	-4.512255812428855	0.01852854089961608	-1.403729260786467	0.5270913861826496	-4.106799680916398	-4.106799680915676	-0.164686771129732	0.01552437371889102	-0.8117718026235845	-0.2551954845310361	-2.264454693183017e-08	-3.448811460549715e-08	7.73066212413469e-08	1.339991042872602e-08	-3.541778244393634e-08	6.755857971367221e-08	-2.080717847430591e-08
1.04	-0.1443904394750968	-0.08614622674600803	0.7321206386131245	1.227458470122375	-0.3282748524297831	-0.0049799940091274	-0.959691303942241	1.157129722021657	1.157129722021683	-0.08024810639217847	-0.174519604683677	0.1528274151655513	0.01521468947642797	0.144684591112836	0.03407911816398505	0.1169097906238896	-0.4771879179342069	0.0003326711853138137	-0.1209127942455449	0.01585244432798802	-0.3337996775360961	-0.333799677536088	-0.007440394691830953	0.0004793431720857475	-0.02062883346269349	-0.005321832977840482	-0.3924750078641774	0.03727122602221594	-0.00533583395702805	-0.2955545350723896	0.1028128427264335	0.02685858929439653	0.434778162746395	-17.57744888869568	-7.955221282820686	0.09232763769500547	4.7889408803893	-786.4760762714897	-55.07214401688842	-1.863328616460632	0.9522958195039503	0.2143036405633353	1.209412773357802	-4.511273287975079	0.006002172502035929	-1.388379701340705	0.6052423309001231	-4.096123074784207	-4.09612307478421	-0.2008738372358684	-0.006669887393301498	-0.8033875249606328	-0.2668429062294921	-2.576824433130315e-08	-4.280183974685571e-08	8.596717609060714e-08	1.507560782515349e-08	-4.003893549828887e-08	6.864915577405681e-08	-2.314621750946666e-08
1.05	-0.1428967282059882	-0.08579451346938735	0.733349900546873	1.222462268385211	-0.328270609550618	-0.00625854514521163	-0.9595005774026732	1.153587460532179	1.153587460532161	-0.08033152919234231	-0.1745144980355655	0.1525812361692102	0.0151489515872754	0.1540256983025047	0.03628655777297537	0.1289228877230366	-0.5220059156142235	0.0005257980940893543	-0.1347815183978968	0.02243590799918528	-0.3746299864600977	-0.3746299864600893	-0.009248539409213226	0.0005417517242612771	-0.02859586471929243	-0.007810087785570094	-0.3921703428311065	0.03764644388874628	-0.00539134872093421	-0.294756983181688	0.1027921754957776	0.02701904238350139	0.4351870674830276	-17.56165185656342	-8.046402812902889	0.1282595344795938	4.381873305686669	-786.4761623055107	-55.12496053695084	-1.939516108097484	0.9202212761543338	0.2274205724601185	1.194292939419198	-4.46008931209198	0.02744765813225532	-1.383755246633273	0.7063550470633879	-4.073084601295446	-4.073084601295376	-0.1714554800072191	0.01268242328239198	-0.7916988878871311	-0.2374708781522885	-2.885732088691846e-08	-5.110925437695709e-08	9.451954044125111e-08	1.671413058281131e-08	-4.465847844693792e-08	6.962468325942236e-08	-2.54576467642926e-08
1.06	-0.1413105652434987	-0.08542003450639815	0.7346987004038587	1.217019281410429	-0.3282641394607535	-0.007675310817701325	-0.9592397248940208	1.14963757599344	1.149637575993382	-0.08043316757786943	-0.174508770062591	0.1522557192679274	0.01505880032802383	0.1631749297904321	0.03863225543768812	0.1408173752712594	-0.566544965457316	0.0007781133255397833	-0.148555701528288	0.02987763814374938	-0.4153242873875917	-0.4153242873875833	-0.01108351176731169	0.00060360814680836	-0.03649641445099568	-0.01020450699760585	-0.3918656777980195	0.03802166175528626	-0.005446863484740022	-0.2939594312909848	0.1027715082651214	0.02717949547261591	0.435595972219672	-17.55672792710608	-8.136023792699609	0.1643347539612656	4.008979208449277	-786.6256816350365	-55.17291834399406	-2.026137766819267	0.9139206791556622	0.2419552517078563	1.185690863172973	-4.455483720590271	0.0178398370369482	-1.369471496948637	0.7768956255734435	-4.068921475482665	-4.068921475482717	-0.2062393653791292	-0.006780313319128907	-0.7900912199814489	-0.2480757870907772	-3.111334199240241e-08	-5.944186554496457e-08	1.003294923604803e-07	1.704259591754378e-08	-4.774823662129729e-08	6.962580457317333e-08	-2.743810524934536e-08
